# xmcd CD database file
#
# Track frame offsets:
#	182
#	23627
#	36745
#	46767
#	60170
#	73787
#	93175
#	118562
#	133725
#	149137
#	163937
#	182947
#	202282
#	224512
#	235815
#	250930
#	264627
#	279392
#	292440
#
# Disc length: 4095 seconds
#
# Revision: 2
# Processed by: cddbd v1.5.2PL0 Copyright (c) Steve Scherf et al.
# Submitted via: CDex 1.51
#
DISCID=3a0ffd13
DTITLE=JAZZ - The Complete Nocturne Recordings - Vol.1 - CD 1  (1954 Fresh Sound)
DYEAR=1954
DGENRE=Jazz
TTITLE0=Jeeper's Leapers - Herbie Harper Quintet
TTITLE1=Dinah - Herbie Harper Quintet
TTITLE2=Five Brothers - Herbie Harper Quintet
TTITLE3=Herbstone - Herbie Harper Quintet
TTITLE4=Summertime - Herbie Harper Quintet
TTITLE5=Jive At Five - Herbie Harper Quintet
TTITLE6=Casa De Luz - Bud Shank Quintet
TTITLE7=Lotus Bud - Bud Shank Quintet
TTITLE8=Left Bank - Bud Shank Quintet
TTITLE9=Shank's Pranks - Bud Shank Quintet
TTITLE10=Jasmine - Bud Shank Quintet
TTITLE11=Just A Few - Bud Shank Quintet
TTITLE12=La Rosita - Harry Babasin Quintet
TTITLE13=Skylark - Harry Babasin Quintet
TTITLE14=Tangerine - Harry Babasin Quintet
TTITLE15=When You Wish Upon A Star - Harry Babasin Quintet
TTITLE16=The Girl Friend - Harry Babasin Quintet
TTITLE17=Easy To Remember - Harry Babasin Quintet
TTITLE18=Babo-Ling - Harry Babasin Quintet
EXTD=YEAR: 1954
EXTT0=
EXTT1=
EXTT2=
EXTT3=
EXTT4=
EXTT5=
EXTT6=
EXTT7=
EXTT8=
EXTT9=
EXTT10=
EXTT11=
EXTT12=
EXTT13=
EXTT14=
EXTT15=
EXTT16=
EXTT17=
EXTT18=
PLAYORDER=
